<?xml version="1.0" encoding="UTF-8" standalone="no"?>
<!-- Created with Inkscape (http://www.inkscape.org/) -->

<svg
   xmlns:dc="http://purl.org/dc/elements/1.1/"
   xmlns:cc="http://creativecommons.org/ns#"
   xmlns:rdf="http://www.w3.org/1999/02/22-rdf-syntax-ns#"
   xmlns:svg="http://www.w3.org/2000/svg"
   xmlns="http://www.w3.org/2000/svg"
   xmlns:xlink="http://www.w3.org/1999/xlink"
   xmlns:sodipodi="http://sodipodi.sourceforge.net/DTD/sodipodi-0.dtd"
   xmlns:inkscape="http://www.inkscape.org/namespaces/inkscape"
   width="16.653549"
   height="15.696848"
   viewBox="0 0 16.653548 15.696847"
   id="svg2"
   version="1.1"
   inkscape:version="0.48.3.1 r9886"
   sodipodi:docname="onion.svg">
  <title
     id="title4136">onion - lineart</title>
  <defs
     id="defs4">
    <pattern
       inkscape:collect="always"
       xlink:href="#Polkadots-large"
       id="pattern5963"
       patternTransform="matrix(0.19875,0,0,0.19125,45.002849,45.452058)" />
    <pattern
       inkscape:isstock="true"
       inkscape:stockid="Polka dots, large"
       id="Polkadots-large"
       patternTransform="translate(0,0) scale(10,10)"
       height="10"
       width="10"
       patternUnits="userSpaceOnUse"
       inkscape:collect="always">
      <circle
         id="circle5605"
         r="0.45"
         cy="0.810"
         cx="2.567"
         style="fill:black;stroke:none" />
      <circle
         id="circle5607"
         r="0.45"
         cy="2.33"
         cx="3.048"
         style="fill:black;stroke:none" />
      <circle
         id="circle5609"
         r="0.45"
         cy="2.415"
         cx="4.418"
         style="fill:black;stroke:none" />
      <circle
         id="circle5611"
         r="0.45"
         cy="3.029"
         cx="1.844"
         style="fill:black;stroke:none" />
      <circle
         id="circle5613"
         r="0.45"
         cy="1.363"
         cx="6.08"
         style="fill:black;stroke:none" />
      <circle
         id="circle5615"
         r="0.45"
         cy="4.413"
         cx="5.819"
         style="fill:black;stroke:none" />
      <circle
         id="circle5617"
         r="0.45"
         cy="4.048"
         cx="4.305"
         style="fill:black;stroke:none" />
      <circle
         id="circle5619"
         r="0.45"
         cy="3.045"
         cx="5.541"
         style="fill:black;stroke:none" />
      <circle
         id="circle5621"
         r="0.45"
         cy="5.527"
         cx="4.785"
         style="fill:black;stroke:none" />
      <circle
         id="circle5623"
         r="0.45"
         cy="5.184"
         cx="2.667"
         style="fill:black;stroke:none" />
      <circle
         id="circle5625"
         r="0.45"
         cy="1.448"
         cx="7.965"
         style="fill:black;stroke:none" />
      <circle
         id="circle5627"
         r="0.45"
         cy="5.049"
         cx="7.047"
         style="fill:black;stroke:none" />
      <circle
         id="circle5629"
         r="0.45"
         cy="0.895"
         cx="4.340"
         style="fill:black;stroke:none" />
      <circle
         id="circle5631"
         r="0.45"
         cy="0.340"
         cx="7.125"
         style="fill:black;stroke:none" />
      <circle
         id="circle5633"
         r="0.45"
         cy="1.049"
         cx="9.553"
         style="fill:black;stroke:none" />
      <circle
         id="circle5635"
         r="0.45"
         cy="2.689"
         cx="7.006"
         style="fill:black;stroke:none" />
      <circle
         id="circle5637"
         r="0.45"
         cy="2.689"
         cx="8.909"
         style="fill:black;stroke:none" />
      <circle
         id="circle5639"
         r="0.45"
         cy="4.407"
         cx="9.315"
         style="fill:black;stroke:none" />
      <circle
         id="circle5641"
         r="0.45"
         cy="3.870"
         cx="7.820"
         style="fill:black;stroke:none" />
      <circle
         id="circle5643"
         r="0.45"
         cy="5.948"
         cx="8.270"
         style="fill:black;stroke:none" />
      <circle
         id="circle5645"
         r="0.45"
         cy="7.428"
         cx="7.973"
         style="fill:black;stroke:none" />
      <circle
         id="circle5647"
         r="0.45"
         cy="8.072"
         cx="9.342"
         style="fill:black;stroke:none" />
      <circle
         id="circle5649"
         r="0.45"
         cy="9.315"
         cx="8.206"
         style="fill:black;stroke:none" />
      <circle
         id="circle5651"
         r="0.45"
         cy="9.475"
         cx="9.682"
         style="fill:black;stroke:none" />
      <circle
         id="circle5653"
         r="0.45"
         cy="6.186"
         cx="9.688"
         style="fill:black;stroke:none" />
      <circle
         id="circle5655"
         r="0.45"
         cy="6.296"
         cx="3.379"
         style="fill:black;stroke:none" />
      <circle
         id="circle5657"
         r="0.45"
         cy="8.204"
         cx="2.871"
         style="fill:black;stroke:none" />
      <circle
         id="circle5659"
         r="0.45"
         cy="8.719"
         cx="4.59"
         style="fill:black;stroke:none" />
      <circle
         id="circle5661"
         r="0.45"
         cy="9.671"
         cx="3.181"
         style="fill:black;stroke:none" />
      <circle
         id="circle5663"
         r="0.45"
         cy="7.315"
         cx="5.734"
         style="fill:black;stroke:none" />
      <circle
         id="circle5665"
         r="0.45"
         cy="6.513"
         cx="6.707"
         style="fill:black;stroke:none" />
      <circle
         id="circle5667"
         r="0.45"
         cy="9.670"
         cx="5.730"
         style="fill:black;stroke:none" />
      <circle
         id="circle5669"
         r="0.45"
         cy="8.373"
         cx="6.535"
         style="fill:black;stroke:none" />
      <circle
         id="circle5671"
         r="0.45"
         cy="7.154"
         cx="4.37"
         style="fill:black;stroke:none" />
      <circle
         id="circle5673"
         r="0.45"
         cy="7.25"
         cx="0.622"
         style="fill:black;stroke:none" />
      <circle
         id="circle5675"
         r="0.45"
         cy="5.679"
         cx="0.831"
         style="fill:black;stroke:none" />
      <circle
         id="circle5677"
         r="0.45"
         cy="8.519"
         cx="1.257"
         style="fill:black;stroke:none" />
      <circle
         id="circle5679"
         r="0.45"
         cy="6.877"
         cx="1.989"
         style="fill:black;stroke:none" />
      <circle
         id="circle5681"
         r="0.45"
         cy="3.181"
         cx="0.374"
         style="fill:black;stroke:none" />
      <circle
         id="circle5683"
         r="0.45"
         cy="1.664"
         cx="1.166"
         style="fill:black;stroke:none" />
      <circle
         id="circle5685"
         r="0.45"
         cy="0.093"
         cx="1.151"
         style="fill:black;stroke:none" />
      <circle
         id="circle5687"
         r="0.45"
         cy="10.093"
         cx="1.151"
         style="fill:black;stroke:none" />
      <circle
         id="circle5689"
         r="0.45"
         cy="4.451"
         cx="1.302"
         style="fill:black;stroke:none" />
      <circle
         id="circle5691"
         r="0.45"
         cy="3.763"
         cx="3.047"
         style="fill:black;stroke:none" />
    </pattern>
  </defs>
  <sodipodi:namedview
     id="base"
     pagecolor="#ffffff"
     bordercolor="#666666"
     borderopacity="1.0"
     inkscape:pageopacity="0.0"
     inkscape:pageshadow="2"
     inkscape:zoom="2.8284271"
     inkscape:cx="-66.881534"
     inkscape:cy="-5.4713002"
     inkscape:document-units="mm"
     inkscape:current-layer="layer2"
     showgrid="false"
     inkscape:window-width="1449"
     inkscape:window-height="855"
     inkscape:window-x="229"
     inkscape:window-y="27"
     inkscape:window-maximized="0"
     inkscape:snap-global="false"
     fit-margin-top="0.1"
     fit-margin-right="0.1"
     fit-margin-bottom="0.1"
     fit-margin-left="0.1"
     units="mm">
    <inkscape:grid
       type="xygrid"
       id="grid4434"
       originx="-44.61775px"
       originy="-44.977782px"
       empspacing="5"
       visible="true"
       enabled="true"
       snapvisiblegridlinesonly="true" />
  </sodipodi:namedview>
  <metadata
     id="metadata7">
    <rdf:RDF>
      <cc:Work
         rdf:about="">
        <dc:format>image/svg+xml</dc:format>
        <dc:type
           rdf:resource="http://purl.org/dc/dcmitype/StillImage" />
        <dc:title>onion - lineart</dc:title>
        <dc:date>2015-06-10</dc:date>
        <dc:creator>
          <cc:Agent>
            <dc:title>Frank Tremmel</dc:title>
          </cc:Agent>
        </dc:creator>
        <dc:subject>
          <rdf:Bag>
            <rdf:li>Zwiebel</rdf:li>
            <rdf:li>Gemüse</rdf:li>
            <rdf:li>Salat</rdf:li>
            <rdf:li>Onion</rdf:li>
            <rdf:li>vegetable</rdf:li>
            <rdf:li>salad</rdf:li>
            <rdf:li>line art</rdf:li>
            <rdf:li>outline</rdf:li>
          </rdf:Bag>
        </dc:subject>
        <dc:description>line art onion</dc:description>
        <cc:license
           rdf:resource="http://creativecommons.org/publicdomain/zero/1.0/" />
      </cc:Work>
      <cc:License
         rdf:about="http://creativecommons.org/publicdomain/zero/1.0/">
        <cc:permits
           rdf:resource="http://creativecommons.org/ns#Reproduction" />
        <cc:permits
           rdf:resource="http://creativecommons.org/ns#Distribution" />
        <cc:permits
           rdf:resource="http://creativecommons.org/ns#DerivativeWorks" />
      </cc:License>
    </rdf:RDF>
  </metadata>
  <g
     inkscape:groupmode="layer"
     id="layer2"
     inkscape:label="Ebene 2"
     transform="translate(-44.617748,-45.624584)">
    <path
       style="fill:#ffffff;fill-rule:evenodd;stroke:#00ff00;stroke-width:0.04358268;stroke-linecap:butt;stroke-linejoin:miter;stroke-miterlimit:4;stroke-opacity:1;stroke-dasharray:none"
       d="m 56.986006,48.235132 c 0.519485,-0.554923 0.87779,-1.352151 1.249173,-2.129716 0.282381,0.185445 0.564761,0.572097 0.847141,0.546819 l 0.416391,-0.431699 c 0.292044,0.06669 0.573305,0.187422 0.789707,0.633159 l -0.330242,0.431699 c 0.28787,0.164977 0.599894,0.296065 0.703557,0.719498 l -0.473823,0.661939 c 0.273453,0.09965 0.530607,0.427986 0.559973,0.661939 -0.854978,0.412248 -1.714868,0.822528 -2.383479,1.309487 z"
       id="path4430"
       inkscape:connector-curvature="0"
       sodipodi:nodetypes="ccccccccccc" />
    <path
       style="font-size:medium;font-style:normal;font-variant:normal;font-weight:normal;font-stretch:normal;text-indent:0;text-align:start;text-decoration:none;line-height:normal;letter-spacing:normal;word-spacing:normal;text-transform:none;direction:ltr;block-progression:tb;writing-mode:lr-tb;text-anchor:start;baseline-shift:baseline;color:#000000;fill:#000000;fill-opacity:1;fill-rule:evenodd;stroke:none;visibility:visible;display:inline;overflow:visible;enable-background:accumulate;font-family:sans-serif"
       d="m 59.29146,46.167698 -0.325876,0.351819 c -0.197759,-0.120498 -0.363662,-0.498791 -0.623342,-0.529277 -0.08911,-0.01046 -0.242382,-0.03313 -0.325019,0.06318 -0.511422,0.596083 -0.554651,1.606455 -1.151298,2.132032 l 0.164409,0.19339 c 0.531384,-0.468723 0.978215,-1.260686 1.372136,-1.840646 0.113538,-0.16716 0.319046,0.184782 0.479599,0.214031 0.179046,0.03262 -0.16891,0.499748 -0.237322,0.605662 -0.366477,0.567375 -0.887259,1.012872 -1.325513,1.523872 l 0.137203,0.17129 c 0.618037,-0.705757 1.383868,-1.206301 1.760351,-2.082587 0.120915,-0.281436 0.283056,-0.638689 0.425428,-0.549702 0.122592,0.07662 0.475874,0.320699 0.398064,0.470025 -0.107403,0.206121 -0.37662,0.365079 -0.522883,0.553933 -0.517265,0.667886 -1.165049,1.220271 -1.687101,1.883522 -0.135909,0.111285 -0.10377,0.195585 0.0386,0.253005 0.134715,0.147818 0.201115,-0.10471 0.285024,-0.195271 0.580485,-0.626505 1.172897,-1.123914 1.65627,-1.831588 0.150348,-0.220113 0.788449,0.360382 0.670228,0.540878 -0.221361,0.337965 -0.193929,0.207685 -0.344662,0.419571 -0.571335,0.09443 -1.071233,0.727819 -1.65848,1.053653 -0.152282,0.08449 -0.462891,0.156214 -0.482791,0.303527 l 0.05926,0.14643 c 0.67469,-0.335719 1.424209,-0.615817 1.918601,-1.202144 0.109775,-0.130188 0.334217,0.04615 0.437601,0.118571 0.111041,0.07779 0.28323,0.254096 0.114824,0.329464 -0.566756,0.253647 -1.538494,0.796021 -2.213999,1.246586 -0.176849,0.168722 -0.02625,0.09254 0.101794,0.265023 0.553477,-0.431003 1.203679,-0.701655 1.839674,-0.985837 0.202458,-0.09046 0.449298,-0.140088 0.594179,-0.313836 0.188755,-0.226365 -0.04437,-0.489996 -0.196193,-0.669634 -0.08212,-0.09717 -0.2653,-0.203152 -0.10972,-0.343433 l 0.200554,-0.180832 c 0.06459,-0.05824 0.127241,-0.148518 0.11394,-0.234333 -0.04105,-0.26483 -0.250404,-0.439529 -0.419532,-0.617283 -0.0935,-0.09827 -0.238948,-0.21442 -0.09682,-0.336424 0.08845,-0.07592 0.231309,-0.142347 0.07881,-0.417723 -0.158814,-0.286776 -0.42277,-0.524708 -0.724054,-0.649024 -0.165057,-0.06811 -0.309198,0.03997 -0.40195,0.140107 z"
       id="path4171"
       inkscape:connector-curvature="0"
       sodipodi:nodetypes="scssccsssccssssccssscsccsssccsssssssssss" />
    <path
       style="fill:#ffffff;fill-rule:evenodd;stroke:#ff0000;stroke-width:0.14999998px;stroke-linecap:butt;stroke-linejoin:miter;stroke-opacity:1"
       d="m 54.914593,46.994654 c 2.171982,1.057848 3.434301,3.094027 3.817475,5.281253 0.161264,0.920521 0.369915,1.980812 0.193601,2.952986 -0.245256,1.352308 -1.034031,2.58793 -1.939893,3.518471 -1.360927,1.398003 -3.670143,1.907336 -5.604378,1.66874 -0.437033,-0.05391 -3.347257,-0.902587 -4.450014,-2.343375 -0.917216,-1.198373 -1.374216,-3.187754 -1.398034,-4.697896 -0.02627,-1.665606 0.04341,-3.232054 1.055898,-4.553148 1.047376,-1.366623 2.629441,-2.311856 4.330643,-2.562118 1.253074,-0.184338 2.873618,0.189072 3.994702,0.735087 z"
       id="path4428"
       inkscape:connector-curvature="0"
       sodipodi:nodetypes="ssssssssss" />
    <path
       style="fill:url(#pattern5963);fill-opacity:1;fill-rule:evenodd;stroke:none"
       d="m 45.921599,56.034439 c 0,0 2.8014,2.31489 5.025,2.1 3.010086,-0.290897 5.352009,-2.312527 6.045477,-3.958663 0.285598,-0.677946 0.483326,-1.382692 0.553973,-2.20853 0.124319,-1.453246 -0.343815,-2.805272 -0.44945,-3.282807 1.758356,2.713137 2.054942,4.898606 1.809361,6.767516 -0.198828,1.513113 -1.319314,2.879548 -1.865611,3.301234 -1.663284,1.283889 -2.775757,1.908549 -4.875,1.81875 -4.180886,-0.178846 -6.208728,-3.101634 -6.24375,-4.5375 z"
       id="path4432"
       inkscape:connector-curvature="0"
       sodipodi:nodetypes="cssscsssc" />
    <path
       style="font-size:medium;font-style:normal;font-variant:normal;font-weight:normal;font-stretch:normal;text-indent:0;text-align:start;text-decoration:none;line-height:normal;letter-spacing:normal;word-spacing:normal;text-transform:none;direction:ltr;block-progression:tb;writing-mode:lr-tb;text-anchor:start;baseline-shift:baseline;color:#000000;fill:#000000;fill-opacity:1;fill-rule:evenodd;stroke:none;visibility:visible;display:inline;overflow:visible;enable-background:accumulate;font-family:sans-serif"
       d="m 52.403648,46.004294 c -2.049433,-0.176542 -4.226678,0.573029 -5.633443,2.090493 -1.367846,1.475481 -1.818668,3.659045 -1.555461,5.620704 0.146691,1.093277 0.381482,2.178085 0.676598,3.239148 0.298128,1.071893 1.063078,2.010545 2.114373,2.46926 1.115965,0.486935 2.116777,1.293066 3.361134,1.452693 1.83039,0.234801 3.781466,-0.136306 5.238431,-1.346073 1.555986,-1.291996 2.727152,-3.180814 2.642318,-5.250535 -0.08531,-2.081377 -0.713813,-4.205666 -2.015447,-5.845153 -1.153749,-1.453216 -3.00585,-2.273531 -4.828503,-2.430537 z m -0.03998,0.461701 c 2.0842,0.192211 4.159932,1.317166 5.155728,3.221161 0.972587,1.859619 1.509429,3.903432 0.997789,5.9824 -0.4487,1.823212 -1.758265,3.046793 -3.42052,3.845546 -1.346686,0.647115 -2.729488,0.69912 -4.159094,0.271554 -1.029696,-0.307961 -1.959423,-0.922242 -2.918053,-1.393556 -1.118967,-0.550143 -1.59747,-1.479982 -1.826923,-2.638544 -0.289309,-1.460792 -0.455561,-2.866761 -0.148251,-4.361539 0.306874,-1.492656 0.808981,-2.892137 2.131412,-3.704248 1.25459,-0.770449 2.713314,-1.358765 4.187912,-1.222774 z"
       id="path4169"
       inkscape:connector-curvature="0"
       sodipodi:nodetypes="ssssssssssssssssssss" />
    <path
       style="fill:#ffffff;fill-rule:evenodd;stroke:#ff6600;stroke-width:0.05314961;stroke-linecap:butt;stroke-linejoin:miter;stroke-miterlimit:4;stroke-opacity:1;stroke-dasharray:none"
       d="m 46.666752,54.925497 c -0.03452,0.228978 0.0861,0.281003 -0.02253,0.724787 -0.06068,0.247915 -0.264741,0.378937 -0.282695,0.687465 -0.02197,0.377585 0.239091,0.79264 0.392472,1.107194 -0.182592,0.121398 -0.09577,0.315459 0.108509,0.379664 0.0073,0.0269 0.0081,0.0981 0.02221,0.122103 -0.193277,0.04743 -0.672713,0.443104 -0.836026,0.366309 -0.438395,-0.206151 -0.154286,-0.923924 -0.109461,-1.031197 l -0.229842,-0.620989 c -0.04432,0 -0.479116,1.072679 -0.338718,1.388266 0.1204,0.270635 0.403254,0.588482 0.686589,0.672838 0.06789,0.02021 0.190703,-0.01714 0.310295,-0.05406 -0.05473,0.19941 -0.08627,0.267244 -0.110729,0.279501 -0.04605,0.02308 -0.408285,0.229633 -0.642486,0.229261 -0.195953,-3.3e-4 -0.475651,0.106814 -0.504195,0.153784 -0.04621,0.07604 0.235305,0.280929 0.557181,0.378191 0.266785,0.08062 0.600122,-0.239053 0.801441,-0.43213 0.208355,-0.199824 0.231274,-0.409916 0.307759,-0.685558 0.03015,-0.108664 0.189356,-0.17833 0.354841,-0.23605 0.01827,0.125436 -0.02339,0.81422 -0.387204,1.208105 -0.184067,0.199278 -0.568568,0.240263 -0.534294,0.399695 0.03219,0.149721 0.172875,0.249359 0.324575,0.230851 0.11961,-0.01458 0.51244,-0.305298 0.557772,-0.417185 0.190526,-0.470244 0.186069,-0.597193 0.286426,-1.178738 0.04942,-0.286374 0.12028,0.02366 0.190123,0.182518 0.04674,0.106302 0.02982,0.265224 -0.0013,0.397471 -0.01449,0.06163 -0.06433,0.258057 -0.07329,0.308755 -0.07083,0.400756 0.05054,0.727317 -0.28904,0.929126 -0.423945,0.251948 -0.117949,0.482636 0.315374,0.19333 0.369382,-0.246617 0.179769,-0.813614 0.293797,-1.199406 0.08911,-0.04096 0.225414,0.02617 0.311885,0.124009 0.183984,0.208165 0.168916,0.590262 0.384538,0.740568 0.268676,0.187289 0.702975,0.235266 1.02417,0.172344 0.452496,-0.08864 0.720966,-0.376915 0.08947,-0.459159 -0.217735,-0.02835 -0.6695,0.07898 -0.849032,-0.04769 -0.217609,-0.153548 -0.266,-0.456103 -0.343929,-0.660756 0.346979,0.09764 0.548055,0.186362 0.961986,0.1822 0.981662,-0.0363 0.562258,-0.463906 0.158003,-0.428314 -0.710918,0.06259 -0.90257,-0.146369 -1.256099,-0.292537 -0.05427,-0.02244 -0.158092,-0.06542 -0.204642,-0.100799 -0.08372,-0.237567 -0.0296,-0.35476 0.05394,-0.373622 0.302021,-0.01636 0.648406,0.194743 0.889961,0.276955 0.275112,0.09363 0.782538,-0.101743 0.917248,-0.120512 0.357429,-0.0498 0.511454,-0.379026 0.0082,-0.433084 -0.141636,-0.01522 -0.44585,0.19532 -0.710383,0.175841 -0.35172,-0.0259 -0.508337,-0.136028 -0.810325,-0.176478 0.31141,-0.0501 0.504537,-0.07795 0.750995,-0.275049 0.247044,-0.19757 0.335866,-0.402463 0.540955,-0.625777 0.107148,-0.11667 0.190465,-0.255372 0.314422,-0.353909 0.384103,-0.305332 0.02372,-0.638849 -0.287769,-0.199689 -0.129868,0.183095 -0.291137,0.282156 -0.447996,0.442624 -0.161122,0.164829 -0.250865,0.380598 -0.450215,0.496042 -0.124587,0.07215 -0.262502,0.09848 -0.419124,0.105251 0.177825,-0.153177 0.254546,-0.287507 0.376291,-0.437855 0.147204,-0.181786 0.484326,-0.442782 0.578713,-0.656938 0.08528,-0.193483 0.08174,-0.530233 -0.126277,-0.565997 -0.04544,-0.0078 -0.05147,0.335542 -0.13516,0.487457 -0.09705,0.176169 -0.237775,0.295509 -0.38549,0.431812 -0.150837,0.139183 -0.306455,0.288251 -0.460686,0.424815 0.08387,-0.284564 -0.03601,-0.56586 0.04823,-0.854084 0.07305,-0.249934 0.538121,-0.75626 0.583156,-1.012754 0.02474,-0.140907 -0.01204,-0.291467 -0.06536,-0.424181 -0.264501,-0.658324 -0.590333,-0.580373 -0.453388,-0.151676 0.0629,0.196898 0.09241,0.512528 0.0089,0.614966 -0.198485,0.243427 -0.302031,0.518929 -0.375656,0.824514 -0.124705,0.517579 0.132198,0.671864 -0.367407,1.001625 -0.05538,-0.195129 -0.134281,-0.376226 -0.112633,-0.552643 0.03714,-0.302726 0.287449,-0.557909 0.336948,-0.858854 0.06188,-0.376255 0.01288,-0.727636 -0.02982,-1.106559 -0.0572,-0.507548 -0.253585,-0.454004 -0.303951,-0.02925 -0.03527,0.297483 0.112357,0.607653 0.05901,0.902418 -0.06028,0.333081 -0.323852,0.529583 -0.376608,0.863942 -0.04182,0.26503 0.06055,0.558608 0.08535,0.826103 -0.07382,0.01291 -0.09269,0.03288 -0.165618,0.04611 -0.131214,-0.255857 -0.370495,-0.417917 -0.359158,-0.700186 0.0077,-0.191439 0.141537,-0.327216 0.192271,-0.511942 0.0433,-0.157661 -0.03823,-0.348107 -0.01333,-0.509716 0.02045,-0.132752 0.08751,-0.151451 0.116122,-0.282682 0.05754,-0.263882 -0.03758,-0.451714 -0.01523,-0.517029 0.03115,-0.09102 0.221466,-0.269107 0.210671,-0.364718 -0.0123,-0.108864 -0.05132,-0.213457 -0.165618,-0.222266 -0.288297,0.01593 -0.418375,0.441523 -0.458149,0.683216 z"
       id="path4209-0"
       inkscape:connector-curvature="0"
       sodipodi:nodetypes="csscccsccsscsssssscsssssssssscsssssccssccsssscsssssscssssscsssssscssssssccssssssccc" />
    <path
       style="font-size:medium;font-style:normal;font-variant:normal;font-weight:normal;font-stretch:normal;text-indent:0;text-align:start;text-decoration:none;line-height:normal;letter-spacing:normal;word-spacing:normal;text-transform:none;direction:ltr;block-progression:tb;writing-mode:lr-tb;text-anchor:start;baseline-shift:baseline;color:#000000;fill:#000000;fill-opacity:1;fill-rule:evenodd;stroke:none;visibility:visible;display:inline;overflow:visible;enable-background:accumulate;font-family:sans-serif"
       d="m 47.133577,54.135882 c -0.378232,-0.02564 -0.527726,0.495645 -0.559148,0.795968 -0.03413,0.326165 0.0244,0.661317 -0.175663,0.950438 -0.200476,0.289713 -0.107874,0.684463 0.0098,1.010862 0.07916,0.219569 0.326219,0.460757 0.171637,0.67889 -0.141264,0.19934 0.374024,0.303137 0.03177,0.432565 -0.168339,0.06366 -0.70208,0.390327 -0.694845,0.01264 0.0061,-0.319774 0.03806,-0.462426 0.108914,-0.682905 -0.08731,-0.263546 -0.230911,-0.873937 -0.30839,-1.06459 -0.345304,0.587245 -0.510136,1.132505 -0.494776,1.702081 0.009,0.333752 0.400636,0.836666 0.826934,0.824879 0.323217,-0.0089 -0.03191,0.153881 -0.226478,0.224682 -0.278769,0.101443 -0.816244,0.01706 -0.851254,0.395882 0.153685,0.215027 0.71923,0.469444 0.979683,0.399873 0.326921,-0.08732 0.544337,-0.387443 0.726077,-0.66836 0.141136,-0.218155 0.03569,-0.584301 0.360664,-0.671134 -0.0093,0.412742 -0.215181,0.789065 -0.506374,1.093203 -0.115183,0.120305 -0.50111,0.122629 -0.405162,0.436582 0.08195,0.268159 0.529842,0.35376 0.770132,0.161295 0.208415,-0.166935 0.327309,-0.38505 0.39553,-0.630264 0.07547,-0.271272 0.115676,-0.55003 0.161507,-0.827103 0.159846,0.287025 -0.06952,0.541709 -0.07442,0.8386 -0.0044,0.269148 0.007,0.620187 -0.260627,0.761139 -0.219966,0.115853 -0.36711,0.715629 0.0032,0.651164 0.32082,-0.05584 0.7209,-0.356484 0.763916,-0.699703 0.02554,-0.203785 -0.129001,-0.760954 0.02771,-0.77163 0.389002,-0.0265 0.155629,0.638404 0.396972,0.840677 0.358117,0.300144 0.970922,0.274007 1.390748,0.195348 0.665909,-0.12476 0.679735,-0.655277 -0.06997,-0.634212 -0.299313,0.0084 -0.622483,0.09255 -0.854112,-0.102051 -0.112128,-0.09421 -0.194329,-0.337237 -0.126929,-0.362648 0.395311,0.151066 1.17387,0.200269 1.53113,-0.04395 0.276805,-0.189222 -0.517365,-0.492657 -0.70749,-0.49662 -0.319302,-0.0066 -0.666602,0.05333 -0.937272,-0.169807 -0.163531,-0.134813 -0.63711,-0.221578 -0.363263,-0.344633 0.380928,-0.171172 0.78212,0.371329 1.214412,0.26241 0.258107,-0.06503 0.513333,-0.134484 0.767616,-0.209944 0.450466,-0.133677 0.06562,-0.654513 -0.260407,-0.55849 -0.30715,0.09046 -0.582541,0.308213 -0.913611,0.18053 -0.132686,-0.05117 -0.377981,-0.05163 -0.13096,-0.08499 0.345691,-0.04668 0.559374,-0.348462 0.759308,-0.618578 0.181297,-0.244933 0.38256,-0.470109 0.599332,-0.683557 0.309954,-0.305201 -0.200669,-0.597525 -0.415271,-0.27762 -0.218459,0.325654 -0.610916,0.502258 -0.795379,0.850656 -0.07562,0.142827 -0.49675,0.38358 -0.253717,0.121951 0.214242,-0.230635 0.469151,-0.421216 0.647735,-0.679403 0.165317,-0.239005 0.239214,-0.960584 -0.140968,-0.864289 -0.25438,0.06443 -0.04125,0.558807 -0.309254,0.726934 -0.184355,0.115648 -0.504647,0.556603 -0.544269,0.45249 -0.106934,-0.280982 0.01217,-0.607336 0.184139,-0.875538 0.202333,-0.315567 0.497164,-0.656614 0.384758,-1.065845 -0.063,-0.229365 -0.429087,-0.982002 -0.663951,-0.632821 -0.160777,0.239033 0.12391,0.634816 0.01099,0.907941 -0.114942,0.278015 -0.291594,0.54282 -0.374341,0.849757 -0.07542,0.279748 0.0254,0.522938 -0.138665,0.766808 -0.04989,0.07416 -0.0864,0.194856 -0.111571,0.171584 -0.0648,-0.0599 -0.05456,-0.466503 -0.0044,-0.571587 0.140363,-0.294304 0.33186,-0.579519 0.326724,-0.922676 -0.0059,-0.395656 -0.04195,-0.793085 -0.126872,-1.177861 -0.09119,-0.413156 -0.422619,-0.02712 -0.423831,0.215583 -0.002,0.39074 0.172738,0.821806 -0.0599,1.184644 -0.189337,0.295303 -0.321012,0.64999 -0.229634,1.015859 0.03765,0.150753 0.12991,0.616925 -0.06956,0.284756 -0.141095,-0.234956 -0.315551,-0.556567 -0.09775,-0.796643 0.217717,-0.239988 -0.04819,-0.573897 0.09096,-0.799787 0.182452,-0.296202 -0.06433,-0.646996 0.147105,-0.831601 0.255373,-0.222965 0.164537,-0.559306 -0.108867,-0.577834 z m -0.04684,0.223027 c 0.378022,0.09814 -0.190007,0.29846 -0.05583,0.572129 0.150084,0.306104 -0.222679,0.539877 -0.114125,0.823509 0.121504,0.317469 -0.147467,0.51817 -0.185199,0.793094 -0.04993,0.36378 0.224798,0.666672 0.385352,0.966191 0.09589,0.166512 0.426389,0.243262 0.07423,0.293585 -0.181815,0.102525 -0.185367,0.02055 -0.321882,-0.071 -0.258479,-0.173352 0.09334,-0.168154 -0.07015,-0.417078 -0.212863,-0.324092 -0.461034,-0.753873 -0.266526,-1.147372 0.143357,-0.290017 0.274159,-0.587356 0.255931,-0.919466 -0.01542,-0.280984 0.0044,-0.597977 0.179431,-0.830735 0.02766,-0.03678 0.07467,-0.0743 0.118774,-0.06285 z m 0.640265,0.198099 c 0.110537,0.420248 0.185172,0.876704 0.0821,1.30618 -0.08666,0.36108 -0.448974,0.683057 -0.315419,1.074942 0.04059,0.119092 0.05481,0.439944 0.16804,0.420984 0.239732,-0.136909 0.451636,-0.370171 0.433783,-0.669038 -0.02406,-0.40273 0.132474,-0.793363 0.386316,-1.11428 0.191422,-0.242004 0.08078,-0.574593 0.05308,-0.866036 -0.02428,-0.255519 0.218221,0.239323 0.250918,0.33246 0.115835,0.329961 -0.124618,0.618227 -0.286703,0.875404 -0.167961,0.266499 -0.314264,0.565122 -0.264384,0.882708 0.04703,0.299411 -0.08032,0.587803 -0.35268,0.716797 -0.199976,0.05159 -0.589361,0.131903 -0.56554,-0.09251 0.266526,0.0077 0.07656,-0.359325 0.0465,-0.511672 -0.07225,-0.366069 0.08171,-0.687175 0.263563,-0.976594 0.204189,-0.32496 0.114614,-0.715362 0.06854,-1.070375 -0.01347,-0.103796 0.0054,-0.409531 0.03189,-0.308967 z m 1.60193,1.516429 c 0.166371,0.239188 -0.07764,0.56652 -0.299506,0.74112 -0.371475,0.29234 -0.588973,0.7911 -1.056963,0.953632 -0.103727,0.05879 -0.429141,-0.04018 -0.214685,-0.06417 0.352383,0.02305 0.517646,-0.321259 0.740914,-0.525998 0.237809,-0.218072 0.49699,-0.413441 0.699901,-0.664001 0.100348,-0.123912 0.04267,-0.56663 0.130339,-0.440585 z m 0.766224,0.333558 c 0.172201,0.06368 -0.221797,0.397536 -0.358284,0.550812 -0.257973,0.289706 -0.40573,0.688965 -0.809898,0.802136 -0.214615,0.06009 -0.80353,0.210354 -0.754296,0.109168 0.146952,-0.302015 0.613018,-0.136754 0.844009,-0.389638 0.190391,-0.208435 0.339695,-0.456574 0.576292,-0.619141 0.188925,-0.12981 0.275524,-0.537149 0.502177,-0.453337 z m -4.267081,0.805215 c 0.01071,0.144101 -0.07115,0.249023 -0.08822,0.350682 -0.05759,0.343108 -0.09,0.520659 0.167253,0.767116 0.240487,0.230399 0.650552,-0.179736 0.903425,-0.245616 0.202865,-0.05285 0.564585,-0.192222 0.665742,-0.182498 -0.101946,0.273732 -0.456028,0.293683 -0.632343,0.488129 -0.169183,0.186582 -0.373023,0.115973 -0.548805,0.200834 -0.36591,0.17665 -0.795339,-0.311001 -0.820015,-0.582768 -0.04823,-0.531229 0.003,-0.731508 0.259917,-1.195983 0.0012,0.245934 0.0421,0.25355 0.09304,0.400104 z M 47.648,57.973347 c 0.25884,0.118788 0.553866,0.03851 0.815237,0.120376 0.36843,0.115399 0.779618,0.328002 1.14741,0.12008 0.138836,-0.07849 0.700374,-0.113697 0.553707,0.0091 -0.259492,0.217317 -0.656077,0.260197 -1.000504,0.255531 -0.396464,-0.0054 -0.720788,-0.320802 -1.138406,-0.289875 -0.142746,0.01057 -0.642785,0.01521 -0.377444,-0.215244 z m -0.247476,0.287769 c 0.373057,-0.02697 0.132551,0.465269 0.393764,0.647176 0.103819,0.218896 0.331273,0.222786 0.491438,0.368123 0.230624,0.20927 0.118461,0.688777 0.502514,0.769882 0.271388,0.05731 0.712959,-0.05506 0.975077,0.06302 0.182005,0.08199 -0.382203,0.200329 -0.479507,0.214907 -0.288857,0.04328 -0.825405,-0.0086 -0.883995,-0.37555 -0.05555,-0.347971 -0.252099,-0.529303 -0.57,-0.674593 -0.190209,-0.08693 -0.06386,0.136573 -0.08192,0.221809 -0.06585,0.310784 -0.01745,0.774504 -0.244559,1.037794 -0.09441,0.109448 -0.540241,0.173174 -0.224968,-0.03306 0.323243,-0.211443 0.312402,-0.660872 0.340506,-0.994497 0.0243,-0.288468 0.105377,-0.601153 -0.0515,-0.890419 0.03506,-0.231707 -0.231361,-0.439995 -0.266271,-0.08057 -0.07755,0.434294 -0.08821,0.801645 -0.296982,1.196664 -0.04674,0.08844 -0.205626,0.262875 -0.34235,0.296272 -0.186961,0.04567 -0.347821,0.0162 -0.209272,-0.149729 0.09152,-0.109611 0.199939,-0.03932 0.301307,-0.108603 0.136324,-0.09318 0.259899,-0.322437 0.312486,-0.477049 0.09893,-0.290855 0.173636,-0.608648 0.134029,-0.916151 0.06958,-0.03325 0.138179,-0.06919 0.200201,-0.115425 z m 0.391519,0.08267 c 0.262739,-0.04485 0.230205,0.141504 0.177041,0.332603 0.2392,0.153975 0.481507,0.315688 0.745219,0.422943 0.333389,0.135592 1.341675,-0.0874 1.068814,0.162178 -0.160218,0.146547 -0.362572,0.09109 -0.605079,0.06009 -0.382786,-0.04894 -0.80566,-0.0902 -1.18532,-0.390103 -0.153667,-0.121386 -0.222803,-0.404542 -0.200675,-0.587708 z m -1.08317,0.274602 c -0.06531,0.379584 -0.349086,0.670385 -0.575901,0.847945 -0.24545,0.192145 -0.564777,0.145289 -0.80327,-0.0469 0.0077,-0.221573 0.612098,-0.109881 0.886342,-0.261104 0.209151,-0.115329 0.152591,-0.514012 0.492829,-0.539944 z"
       id="path4209"
       inkscape:connector-curvature="0"
       sodipodi:nodetypes="sssssssccssscsscsssscssssssssscssssssssssssssssssssssssssssssssssssssssccssssssssscssssssccssssssccsssssssssscssscssscccssssscccssssssssssccsssssccccssssccccscc" />
    <path
       style="font-size:medium;font-style:normal;font-variant:normal;font-weight:normal;font-stretch:normal;text-indent:0;text-align:start;text-decoration:none;line-height:normal;letter-spacing:normal;word-spacing:normal;text-transform:none;direction:ltr;block-progression:tb;writing-mode:lr-tb;text-anchor:start;baseline-shift:baseline;color:#000000;fill:#000000;fill-opacity:1;fill-rule:evenodd;stroke:none;visibility:visible;display:inline;overflow:visible;enable-background:accumulate;font-family:sans-serif"
       d="m 53.245258,46.602094 c 0,0 -2.27033,0.364622 -3.543129,1.030787 -1.37101,0.717567 -2.271052,2.093365 -2.882345,3.471503 -0.171555,0.386765 -0.468412,1.471707 -0.275596,1.461219 0.13092,-0.0071 0.32825,-0.966181 0.573532,-1.421766 0.722194,-1.341394 1.579152,-2.755776 3.013557,-3.406309 1.166073,-0.528838 3.685855,-0.988788 3.685855,-0.988788 -0.14214,-0.06042 -0.429734,-0.11328 -0.571874,-0.146646 z m 0.179403,0.802987 c -1.189872,0.07895 -1.958056,0.407075 -2.715996,0.854212 -0.685812,0.404585 -0.999401,1.001076 -0.923805,1.016762 0.09131,0.01895 0.793412,-0.613015 1.129898,-0.785092 0.321165,-0.164242 1.580393,-0.663856 2.611556,-0.73455 1.435348,-0.0984 2.640441,0.320638 2.774287,0.382886 -0.05574,-0.06072 -0.331496,-0.315871 -0.641159,-0.50319 -0.08563,-0.05905 -1.590695,-0.273766 -2.234781,-0.231028 z m 1.413785,0.961879 c -1.453511,0.0028 -2.807732,0.799354 -3.888092,1.705775 -0.518265,0.434824 -1.230006,1.20337 -1.623707,1.957408 -0.435898,0.834855 -0.518615,1.640434 -0.31975,1.70426 0.08487,0.02724 0.173004,-0.870165 0.407883,-1.324688 0.313969,-0.607571 1.016497,-1.405153 1.684918,-2.023602 0.531063,-0.49136 1.246263,-0.88787 1.90637,-1.207162 0.572976,-0.277148 1.406166,-0.519532 1.832378,-0.523586 0.737409,-0.007 1.128381,-0.290606 0,-0.288405 z m 2.069915,0.413688 c -1.088295,0.311721 -1.605122,0.560043 -2.539098,1.179813 -0.765276,0.507824 -2.145261,2.13098 -2.125824,2.428265 0.0155,0.237028 1.370345,-1.271379 1.730567,-1.54923 0.433671,-0.334505 0.939455,-0.825209 1.484574,-1.114357 0.868483,-0.460671 1.656412,-0.685225 1.656412,-0.685225 z m 1.323679,2.557802 c -0.260958,1.004389 -1.178127,1.538476 -1.978548,2.08019 -1.08609,0.735053 -2.526087,1.008701 -3.582047,1.573995 -0.566843,0.303453 0.991242,-0.04896 1.381509,-0.166089 0.772021,-0.231699 1.673207,-0.604313 2.47645,-1.06891 0.805766,-0.466056 1.512973,-1.024993 1.892367,-1.831883 -0.03385,-0.17544 -0.07189,-0.361509 -0.189731,-0.587303 z m 0.454442,3.3414 c -0.70582,1.385981 -1.653986,1.88542 -2.788499,2.283809 -1.555293,0.546148 -3.167295,0.944712 -4.808477,0.757792 -0.479898,-0.05466 -0.367201,0.239314 0.120194,0.298731 0.707655,0.08627 1.421945,0.0618 2.129567,-0.003 1.01935,-0.09334 2.024862,-0.401887 2.976771,-0.77493 1.116308,-0.437469 1.774278,-0.74255 2.272703,-1.877446 0.03662,-0.20939 0.09599,-0.429078 0.09774,-0.68496 z m -1.976174,3.827779 c -0.608231,0.14879 -1.477427,0.31625 -2.404893,0.318453 -0.624959,0.0015 -1.396827,-0.105879 -2.00328,-0.06733 -0.78426,0.04985 1.612539,0.412855 1.928774,0.429595 0.685374,0.03628 1.177628,0.01286 1.878671,-0.234933 0.190882,-0.129873 0.38516,-0.266537 0.600728,-0.445782 z m -6.486336,0.518219 c -0.306938,0.250667 0.900092,0.815665 1.087809,0.868712 0.159556,0.04018 0.577764,0.118195 0.821369,0.135667 C 52.029782,59.899386 51.4561,59.717053 51.1342,59.558399 50.774404,59.38107 50.396846,59.171518 50.223972,59.025848 z"
       id="path4360"
       inkscape:connector-curvature="0"
       sodipodi:nodetypes="csssssccsssssccsssssssssscsssscccsssscccssssscccssscccccsc" />
  </g>
</svg>
