<?xml version="1.0" encoding="UTF-8" standalone="no"?>
<!-- Created with Inkscape (http://www.inkscape.org/) -->

<svg
   xmlns:dc="http://purl.org/dc/elements/1.1/"
   xmlns:cc="http://creativecommons.org/ns#"
   xmlns:rdf="http://www.w3.org/1999/02/22-rdf-syntax-ns#"
   xmlns:svg="http://www.w3.org/2000/svg"
   xmlns="http://www.w3.org/2000/svg"
   xmlns:xlink="http://www.w3.org/1999/xlink"
   xmlns:sodipodi="http://sodipodi.sourceforge.net/DTD/sodipodi-0.dtd"
   xmlns:inkscape="http://www.inkscape.org/namespaces/inkscape"
   width="92.125992"
   height="87.023621"
   viewBox="0 0 92.125987 87.023618"
   id="svg2"
   version="1.1"
   inkscape:version="0.48.3.1 r9886"
   sodipodi:docname="onion5.svg">
  <title
     id="title4136">onion - lineart</title>
  <defs
     id="defs4">
    <pattern
       inkscape:collect="always"
       xlink:href="#Polkadots-large"
       id="pattern5963"
       patternTransform="matrix(1.06,0,0,1.02,10.588906,10.694602)" />
    <pattern
       inkscape:isstock="true"
       inkscape:stockid="Polka dots, large"
       id="Polkadots-large"
       patternTransform="translate(0,0) scale(10,10)"
       height="10"
       width="10"
       patternUnits="userSpaceOnUse"
       inkscape:collect="always">
      <circle
         id="circle5605"
         r="0.45"
         cy="0.810"
         cx="2.567"
         style="fill:black;stroke:none" />
      <circle
         id="circle5607"
         r="0.45"
         cy="2.33"
         cx="3.048"
         style="fill:black;stroke:none" />
      <circle
         id="circle5609"
         r="0.45"
         cy="2.415"
         cx="4.418"
         style="fill:black;stroke:none" />
      <circle
         id="circle5611"
         r="0.45"
         cy="3.029"
         cx="1.844"
         style="fill:black;stroke:none" />
      <circle
         id="circle5613"
         r="0.45"
         cy="1.363"
         cx="6.08"
         style="fill:black;stroke:none" />
      <circle
         id="circle5615"
         r="0.45"
         cy="4.413"
         cx="5.819"
         style="fill:black;stroke:none" />
      <circle
         id="circle5617"
         r="0.45"
         cy="4.048"
         cx="4.305"
         style="fill:black;stroke:none" />
      <circle
         id="circle5619"
         r="0.45"
         cy="3.045"
         cx="5.541"
         style="fill:black;stroke:none" />
      <circle
         id="circle5621"
         r="0.45"
         cy="5.527"
         cx="4.785"
         style="fill:black;stroke:none" />
      <circle
         id="circle5623"
         r="0.45"
         cy="5.184"
         cx="2.667"
         style="fill:black;stroke:none" />
      <circle
         id="circle5625"
         r="0.45"
         cy="1.448"
         cx="7.965"
         style="fill:black;stroke:none" />
      <circle
         id="circle5627"
         r="0.45"
         cy="5.049"
         cx="7.047"
         style="fill:black;stroke:none" />
      <circle
         id="circle5629"
         r="0.45"
         cy="0.895"
         cx="4.340"
         style="fill:black;stroke:none" />
      <circle
         id="circle5631"
         r="0.45"
         cy="0.340"
         cx="7.125"
         style="fill:black;stroke:none" />
      <circle
         id="circle5633"
         r="0.45"
         cy="1.049"
         cx="9.553"
         style="fill:black;stroke:none" />
      <circle
         id="circle5635"
         r="0.45"
         cy="2.689"
         cx="7.006"
         style="fill:black;stroke:none" />
      <circle
         id="circle5637"
         r="0.45"
         cy="2.689"
         cx="8.909"
         style="fill:black;stroke:none" />
      <circle
         id="circle5639"
         r="0.45"
         cy="4.407"
         cx="9.315"
         style="fill:black;stroke:none" />
      <circle
         id="circle5641"
         r="0.45"
         cy="3.870"
         cx="7.820"
         style="fill:black;stroke:none" />
      <circle
         id="circle5643"
         r="0.45"
         cy="5.948"
         cx="8.270"
         style="fill:black;stroke:none" />
      <circle
         id="circle5645"
         r="0.45"
         cy="7.428"
         cx="7.973"
         style="fill:black;stroke:none" />
      <circle
         id="circle5647"
         r="0.45"
         cy="8.072"
         cx="9.342"
         style="fill:black;stroke:none" />
      <circle
         id="circle5649"
         r="0.45"
         cy="9.315"
         cx="8.206"
         style="fill:black;stroke:none" />
      <circle
         id="circle5651"
         r="0.45"
         cy="9.475"
         cx="9.682"
         style="fill:black;stroke:none" />
      <circle
         id="circle5653"
         r="0.45"
         cy="6.186"
         cx="9.688"
         style="fill:black;stroke:none" />
      <circle
         id="circle5655"
         r="0.45"
         cy="6.296"
         cx="3.379"
         style="fill:black;stroke:none" />
      <circle
         id="circle5657"
         r="0.45"
         cy="8.204"
         cx="2.871"
         style="fill:black;stroke:none" />
      <circle
         id="circle5659"
         r="0.45"
         cy="8.719"
         cx="4.59"
         style="fill:black;stroke:none" />
      <circle
         id="circle5661"
         r="0.45"
         cy="9.671"
         cx="3.181"
         style="fill:black;stroke:none" />
      <circle
         id="circle5663"
         r="0.45"
         cy="7.315"
         cx="5.734"
         style="fill:black;stroke:none" />
      <circle
         id="circle5665"
         r="0.45"
         cy="6.513"
         cx="6.707"
         style="fill:black;stroke:none" />
      <circle
         id="circle5667"
         r="0.45"
         cy="9.670"
         cx="5.730"
         style="fill:black;stroke:none" />
      <circle
         id="circle5669"
         r="0.45"
         cy="8.373"
         cx="6.535"
         style="fill:black;stroke:none" />
      <circle
         id="circle5671"
         r="0.45"
         cy="7.154"
         cx="4.37"
         style="fill:black;stroke:none" />
      <circle
         id="circle5673"
         r="0.45"
         cy="7.25"
         cx="0.622"
         style="fill:black;stroke:none" />
      <circle
         id="circle5675"
         r="0.45"
         cy="5.679"
         cx="0.831"
         style="fill:black;stroke:none" />
      <circle
         id="circle5677"
         r="0.45"
         cy="8.519"
         cx="1.257"
         style="fill:black;stroke:none" />
      <circle
         id="circle5679"
         r="0.45"
         cy="6.877"
         cx="1.989"
         style="fill:black;stroke:none" />
      <circle
         id="circle5681"
         r="0.45"
         cy="3.181"
         cx="0.374"
         style="fill:black;stroke:none" />
      <circle
         id="circle5683"
         r="0.45"
         cy="1.664"
         cx="1.166"
         style="fill:black;stroke:none" />
      <circle
         id="circle5685"
         r="0.45"
         cy="0.093"
         cx="1.151"
         style="fill:black;stroke:none" />
      <circle
         id="circle5687"
         r="0.45"
         cy="10.093"
         cx="1.151"
         style="fill:black;stroke:none" />
      <circle
         id="circle5689"
         r="0.45"
         cy="4.451"
         cx="1.302"
         style="fill:black;stroke:none" />
      <circle
         id="circle5691"
         r="0.45"
         cy="3.763"
         cx="3.047"
         style="fill:black;stroke:none" />
    </pattern>
  </defs>
  <sodipodi:namedview
     id="base"
     pagecolor="#ffffff"
     bordercolor="#666666"
     borderopacity="1.0"
     inkscape:pageopacity="0.0"
     inkscape:pageshadow="2"
     inkscape:zoom="2.8284271"
     inkscape:cx="-107.27523"
     inkscape:cy="-43.63272"
     inkscape:document-units="mm"
     inkscape:current-layer="layer2"
     showgrid="false"
     inkscape:window-width="1449"
     inkscape:window-height="855"
     inkscape:window-x="229"
     inkscape:window-y="27"
     inkscape:window-maximized="0"
     inkscape:snap-global="false"
     fit-margin-top="1"
     fit-margin-right="1"
     fit-margin-bottom="1"
     fit-margin-left="1"
     units="mm">
    <inkscape:grid
       type="xygrid"
       id="grid4434"
       originx="-6.8815358px"
       originy="-9.314398px"
       empspacing="5"
       visible="true"
       enabled="true"
       snapvisiblegridlinesonly="true" />
  </sodipodi:namedview>
  <metadata
     id="metadata7">
    <rdf:RDF>
      <cc:Work
         rdf:about="">
        <dc:format>image/svg+xml</dc:format>
        <dc:type
           rdf:resource="http://purl.org/dc/dcmitype/StillImage" />
        <dc:title>onion - lineart</dc:title>
        <dc:date>2015-06-10</dc:date>
        <dc:creator>
          <cc:Agent>
            <dc:title>Frank Tremmel</dc:title>
          </cc:Agent>
        </dc:creator>
        <dc:subject>
          <rdf:Bag>
            <rdf:li>Zwiebel</rdf:li>
            <rdf:li>Gemüse</rdf:li>
            <rdf:li>Salat</rdf:li>
            <rdf:li>Onion</rdf:li>
            <rdf:li>vegetable</rdf:li>
            <rdf:li>salad</rdf:li>
            <rdf:li>line art</rdf:li>
            <rdf:li>outline</rdf:li>
          </rdf:Bag>
        </dc:subject>
        <dc:description>line art onion</dc:description>
        <cc:license
           rdf:resource="http://creativecommons.org/publicdomain/zero/1.0/" />
      </cc:Work>
      <cc:License
         rdf:about="http://creativecommons.org/publicdomain/zero/1.0/">
        <cc:permits
           rdf:resource="http://creativecommons.org/ns#Reproduction" />
        <cc:permits
           rdf:resource="http://creativecommons.org/ns#Distribution" />
        <cc:permits
           rdf:resource="http://creativecommons.org/ns#DerivativeWorks" />
      </cc:License>
    </rdf:RDF>
  </metadata>
  <g
     inkscape:groupmode="layer"
     id="layer2"
     inkscape:label="Ebene 2"
     transform="translate(-6.8815352,-9.9611996)">
    <path
       style="fill:#ffffff;fill-rule:evenodd;stroke:#00ff00;stroke-width:0.23244095;stroke-linecap:butt;stroke-linejoin:miter;stroke-miterlimit:4;stroke-opacity:1;stroke-dasharray:none"
       d="m 74.499075,25.537664 c 2.770587,-2.959588 4.681544,-7.211469 6.662257,-11.358484 1.506027,0.989039 3.012055,3.051184 4.518082,2.916368 l 2.220756,-2.302395 c 1.557568,0.35567 3.057624,0.999584 4.211768,3.376846 l -1.761288,2.302396 c 1.535304,0.87988 3.199432,1.579016 3.752304,3.837324 l -2.527056,3.530342 c 1.458416,0.531479 2.829904,2.282589 2.98652,3.530338 -4.55988,2.198657 -9.145962,4.386816 -12.711887,6.983935 z"
       id="path4430"
       inkscape:connector-curvature="0"
       sodipodi:nodetypes="ccccccccccc" />
    <path
       style="font-size:medium;font-style:normal;font-variant:normal;font-weight:normal;font-stretch:normal;text-indent:0;text-align:start;text-decoration:none;line-height:normal;letter-spacing:normal;word-spacing:normal;text-transform:none;direction:ltr;block-progression:tb;writing-mode:lr-tb;text-anchor:start;baseline-shift:baseline;color:#000000;fill:#000000;fill-opacity:1;fill-rule:evenodd;stroke:none;visibility:visible;display:inline;overflow:visible;enable-background:accumulate;font-family:sans-serif"
       d="m 86.79483,14.51135 -1.738008,1.876367 c -1.054712,-0.642653 -1.939531,-2.660216 -3.324491,-2.822809 -0.475272,-0.0558 -1.292703,-0.176714 -1.733432,0.336974 -2.727586,3.179109 -2.958137,8.567761 -6.140258,11.370841 l 0.876847,1.031412 c 2.834049,-2.499856 5.21715,-6.723658 7.318059,-9.816782 0.605536,-0.89152 1.701583,0.985504 2.55786,1.141503 0.954912,0.173969 -0.900849,2.665319 -1.265714,3.230197 -1.954543,3.025998 -4.732049,5.401981 -7.069403,8.127314 l 0.731747,0.913547 c 3.2962,-3.764035 7.38063,-6.433604 9.388539,-11.107127 0.644879,-1.500992 1.509634,-3.406344 2.268954,-2.931745 0.653824,0.408663 2.537992,1.710391 2.123008,2.506797 -0.572816,1.099312 -2.00864,1.947092 -2.788712,2.954311 -2.758747,3.562061 -6.213594,6.508111 -8.997872,10.045453 -0.724848,0.59352 -0.553443,1.043116 0.205889,1.349356 0.71848,0.788362 1.07261,-0.558449 1.520125,-1.041441 3.095922,-3.341363 6.255452,-5.994213 8.833442,-9.768471 0.801856,-1.173939 4.205064,1.922038 3.574552,2.884684 -1.180592,1.802478 -1.034288,1.107653 -1.8382,2.237709 -3.04712,0.503655 -5.71324,3.881702 -8.845227,5.619484 -0.81217,0.450631 -2.46875,0.833142 -2.574883,1.618808 l 0.316055,0.780963 c 3.59835,-1.790504 7.595783,-3.284357 10.232543,-6.411438 0.585464,-0.694335 1.782488,0.246118 2.333872,0.632381 0.592216,0.414867 1.51056,1.355181 0.612392,1.757143 -3.022696,1.35278 -8.205301,4.245445 -11.807994,6.648456 -0.943195,0.899854 -0.139991,0.49355 0.542899,1.413456 2.951878,-2.298679 6.419623,-3.742157 9.811599,-5.257798 1.079776,-0.48248 2.396256,-0.747136 3.168952,-1.67379 1.006696,-1.207278 -0.23664,-2.61331 -1.04636,-3.571381 -0.437976,-0.518215 -1.414936,-1.083477 -0.585176,-1.831641 l 1.069624,-0.96444 c 0.344488,-0.310612 0.678616,-0.792093 0.60768,-1.249774 -0.218936,-1.412429 -1.335488,-2.344158 -2.237504,-3.29218 -0.49864,-0.524078 -1.274392,-1.143573 -0.51636,-1.794257 0.47172,-0.404921 1.233648,-0.759187 0.420312,-2.22786 -0.847008,-1.529472 -2.254776,-2.798441 -3.861624,-3.461457 -0.880304,-0.363232 -1.649057,0.21318 -2.143732,0.747235 z"
       id="path4171"
       inkscape:connector-curvature="0"
       sodipodi:nodetypes="scssccsssccssssccssscsccsssccsssssssssss" />
    <path
       style="fill:#ffffff;fill-rule:evenodd;stroke:#ff0000;stroke-width:0.79999989px;stroke-linecap:butt;stroke-linejoin:miter;stroke-opacity:1"
       d="m 63.451537,18.921783 c 11.583904,5.641853 18.31627,16.501477 20.359868,28.16668 0.860074,4.909447 1.972881,10.564334 1.032538,15.749263 -1.308029,7.212309 -5.51483,13.802292 -10.346095,18.765175 C 67.239569,89.058916 54.923754,91.775362 44.60783,90.50285 42.276989,90.215331 26.755793,85.689051 20.874423,78.00485 15.982603,71.613527 13.54527,61.003494 13.418245,52.949405 13.278142,44.066171 13.649783,35.71178 19.049698,28.665947 24.635703,21.377294 33.073386,16.336051 42.14646,15.001321 48.82952,14.018183 57.472422,16.0097 63.451537,18.921783 z"
       id="path4428"
       inkscape:connector-curvature="0"
       sodipodi:nodetypes="ssssssssss" />
    <path
       style="fill:url(#pattern5963);fill-opacity:1;fill-rule:evenodd;stroke:none"
       d="m 15.488906,67.13397 c 0,0 14.940795,12.346081 26.8,11.2 16.053792,-1.55145 28.544045,-12.333479 32.242542,-21.112872 1.523191,-3.615709 2.577736,-7.374354 2.954522,-11.778825 0.663036,-7.750643 -1.833683,-14.961452 -2.397064,-17.508303 9.377894,14.470065 10.959689,26.125896 9.649922,36.093419 -1.060417,8.069932 -7.036341,15.357588 -9.949922,17.606581 -8.870848,6.847405 -14.80404,10.178928 -26,9.7 -22.298061,-0.953847 -33.113221,-16.542049 -33.3,-24.2 z"
       id="path4432"
       inkscape:connector-curvature="0"
       sodipodi:nodetypes="cssscsssc" />
    <path
       style="font-size:medium;font-style:normal;font-variant:normal;font-weight:normal;font-stretch:normal;text-indent:0;text-align:start;text-decoration:none;line-height:normal;letter-spacing:normal;word-spacing:normal;text-transform:none;direction:ltr;block-progression:tb;writing-mode:lr-tb;text-anchor:start;baseline-shift:baseline;color:#000000;fill:#000000;fill-opacity:1;fill-rule:evenodd;stroke:none;visibility:visible;display:inline;overflow:visible;enable-background:accumulate;font-family:sans-serif"
       d="m 50.059831,13.63986 c -10.930312,-0.941554 -22.542282,3.056158 -30.045032,11.1493 -7.295176,7.869231 -9.69956,19.514903 -8.295791,29.977084 0.782354,5.830811 2.034575,11.616455 3.608525,17.275459 1.590015,5.716762 5.669751,10.722907 11.276654,13.169388 5.951814,2.596984 11.28948,6.896351 17.926051,7.747695 9.762081,1.252272 20.167818,-0.726968 27.938296,-7.179058 C 80.767129,78.889082 87.013346,68.81539 86.560898,57.776873 86.105903,46.676199 82.753897,35.346659 75.811849,26.602724 69.658517,18.852241 59.780646,14.477226 50.059831,13.63986 z m -0.213216,2.462409 c 11.115735,1.025123 22.186304,7.024882 27.497215,17.179523 5.187131,9.917967 8.050292,20.818305 5.321541,31.906135 -2.393064,9.723799 -9.377409,16.249563 -18.242771,20.50958 -7.182329,3.45128 -14.557271,3.728637 -22.181833,1.448284 -5.491715,-1.642455 -10.450259,-4.91862 -15.562952,-7.432296 -5.967824,-2.934096 -8.519839,-7.89324 -9.743587,-14.072236 -1.542982,-7.790892 -2.429661,-15.289391 -0.790673,-23.261542 1.636662,-7.960832 4.314565,-15.424732 11.367529,-19.75599 6.691147,-4.10906 14.471008,-7.246745 22.335531,-6.521458 z"
       id="path4169"
       inkscape:connector-curvature="0"
       sodipodi:nodetypes="ssssssssssssssssssss" />
    <path
       style="fill:#ffffff;fill-rule:evenodd;stroke:#ff6600;stroke-width:0.28346458;stroke-linecap:butt;stroke-linejoin:miter;stroke-miterlimit:4;stroke-opacity:1;stroke-dasharray:none"
       d="m 19.463052,61.219609 c -0.184105,1.221221 0.459199,1.498687 -0.120141,3.865531 -0.323643,1.322217 -1.411948,2.020999 -1.507704,3.666484 -0.117188,2.013787 1.275153,4.227413 2.093185,5.905033 -0.973825,0.647458 -0.510755,1.682449 0.578715,2.024873 0.03898,0.143466 0.04309,0.523187 0.11845,0.651216 -1.030806,0.252983 -3.587802,2.363225 -4.458802,1.953648 -2.33811,-1.09947 -0.822859,-4.927593 -0.583791,-5.499716 l -1.225826,-3.311939 c -0.236375,0 -2.555283,5.72095 -1.806495,7.404083 0.642132,1.443389 2.150687,3.138573 3.661804,3.588468 0.362112,0.107807 1.017084,-0.09143 1.654912,-0.288297 -0.291909,1.063522 -0.460108,1.425302 -0.590558,1.490674 -0.245583,0.123064 -2.177519,1.224707 -3.426592,1.222724 -1.045081,-0.0018 -2.536802,0.569673 -2.689039,0.82018 -0.246467,0.405559 1.25496,1.498289 2.971634,2.017019 1.42285,0.429945 3.200649,-1.274948 4.274351,-2.304695 1.111224,-1.065727 1.233461,-2.186218 1.641378,-3.656308 0.160809,-0.57954 1.009901,-0.951095 1.892489,-1.258932 0.09743,0.668992 -0.124724,4.342508 -2.065089,6.443225 -0.981692,1.062819 -3.032364,1.281402 -2.849567,2.131707 0.171662,0.798512 0.921999,1.329915 1.731065,1.231208 0.637923,-0.07778 2.733013,-1.628258 2.974785,-2.224989 1.016139,-2.50797 0.992366,-3.185027 1.527605,-6.286602 0.263578,-1.527326 0.641492,0.126207 1.01399,0.973427 0.24927,0.566945 0.159042,1.414528 -0.0067,2.119848 -0.07728,0.32869 -0.343096,1.376304 -0.390883,1.64669 -0.377757,2.137369 0.269547,3.879024 -1.541545,4.955343 -2.261037,1.343722 -0.62906,2.574058 1.681993,1.03109 1.970039,-1.315288 0.958768,-4.339273 1.566922,-6.396829 0.475251,-0.218471 1.202204,0.139592 1.663384,0.661382 0.98125,1.110211 0.900885,3.148064 2.050871,3.949694 1.432936,0.998873 3.749196,1.254753 5.462241,0.91917 2.413311,-0.472773 3.845147,-2.010216 0.477183,-2.44885 -1.161258,-0.151229 -3.57067,0.42125 -4.528174,-0.254374 -1.160581,-0.818924 -1.418666,-2.43255 -1.834284,-3.524031 1.850554,0.520747 2.922958,0.993928 5.130591,0.971735 5.235527,-0.193628 2.998705,-2.474168 0.842681,-2.284342 -3.791561,0.33383 -4.813704,-0.780635 -6.699193,-1.5602 -0.289439,-0.119677 -0.843159,-0.348879 -1.091427,-0.537595 -0.446514,-1.26702 -0.157884,-1.892053 0.287663,-1.992649 1.610777,-0.08723 3.458161,1.038628 4.746457,1.477095 1.467262,0.499381 4.173534,-0.54263 4.891991,-0.642732 1.906285,-0.265594 2.727753,-2.021475 0.04399,-2.309782 -0.75539,-0.08115 -2.377868,1.041709 -3.788711,0.93782 -1.875837,-0.138138 -2.711129,-0.725482 -4.321733,-0.941215 1.660854,-0.267216 2.690864,-0.415728 4.005305,-1.466931 1.31757,-1.053708 1.791288,-2.146468 2.885098,-3.337478 0.571456,-0.622241 1.01581,-1.36198 1.676917,-1.887512 2.048549,-1.628439 0.126508,-3.407194 -1.534771,-1.065007 -0.692625,0.976504 -1.55273,1.50483 -2.389312,2.360657 -0.859316,0.87909 -1.337947,2.029859 -2.401148,2.64556 -0.66446,0.384801 -1.400005,0.525226 -2.235323,0.561339 0.948398,-0.816945 1.357579,-1.533372 2.006885,-2.335226 0.785086,-0.969527 2.58307,-2.361506 3.08647,-3.50367 0.454796,-1.031908 0.435926,-2.827908 -0.673479,-3.018653 -0.242325,-0.0417 -0.274529,1.789558 -0.720852,2.599773 -0.517573,0.939566 -1.268133,1.576046 -2.055948,2.302996 -0.804466,0.742308 -1.634429,1.537339 -2.456994,2.265681 0.447293,-1.517677 -0.192076,-3.017921 0.257201,-4.555113 0.389584,-1.332985 2.86998,-4.033388 3.110165,-5.401358 0.13195,-0.751502 -0.0642,-1.554487 -0.348587,-2.262298 -1.41067,-3.511059 -3.148441,-3.095323 -2.418068,-0.80894 0.335453,1.050125 0.492839,2.733484 0.04738,3.279819 -1.058583,1.298281 -1.61083,2.767623 -2.003498,4.397409 -0.665092,2.760424 0.705059,3.583275 -1.959503,5.342 -0.295339,-1.040685 -0.716165,-2.006536 -0.600711,-2.947428 0.198106,-1.614538 1.533063,-2.975517 1.797058,-4.580557 0.330046,-2.006691 0.0687,-3.880725 -0.159068,-5.901646 -0.305077,-2.706924 -1.352449,-2.421353 -1.621069,-0.156025 -0.188135,1.586572 0.599238,3.240816 0.314737,4.812894 -0.321478,1.77643 -1.72721,2.824444 -2.008575,4.60769 -0.223022,1.413496 0.322916,2.979243 0.455187,4.405884 -0.3937,0.06883 -0.494373,0.175358 -0.883298,0.245908 -0.699808,-1.364569 -1.975973,-2.228888 -1.915509,-3.734324 0.04098,-1.021011 0.754867,-1.745154 1.025444,-2.730356 0.230925,-0.840859 -0.203875,-1.856574 -0.07107,-2.718488 0.109086,-0.708011 0.466722,-0.807738 0.619322,-1.507635 0.306853,-1.407373 -0.200428,-2.409141 -0.08122,-2.757491 0.16611,-0.485417 1.181149,-1.435235 1.123579,-1.945163 -0.06558,-0.580607 -0.273719,-1.138435 -0.883298,-1.185415 -1.537584,0.08494 -2.23133,2.354787 -2.443461,3.643814 z"
       id="path4209-0"
       inkscape:connector-curvature="0"
       sodipodi:nodetypes="csscccsccsscsssssscsssssssssscsssssccssccsssscsssssscssssscsssssscssssssccssssssccc" />
    <path
       style="font-size:medium;font-style:normal;font-variant:normal;font-weight:normal;font-stretch:normal;text-indent:0;text-align:start;text-decoration:none;line-height:normal;letter-spacing:normal;word-spacing:normal;text-transform:none;direction:ltr;block-progression:tb;writing-mode:lr-tb;text-anchor:start;baseline-shift:baseline;color:#000000;fill:#000000;fill-opacity:1;fill-rule:evenodd;stroke:none;visibility:visible;display:inline;overflow:visible;enable-background:accumulate;font-family:sans-serif"
       d="m 21.952785,57.008331 c -2.017234,-0.136722 -2.814538,2.64344 -2.982121,4.245163 -0.182003,1.739548 0.130146,3.527023 -0.93687,5.069002 -1.069203,1.545139 -0.57533,3.650469 0.0523,5.391263 0.422207,1.171036 1.739834,2.45737 0.915398,3.620748 -0.753408,1.063146 1.994793,1.61673 0.169454,2.307012 -0.897806,0.339518 -3.744428,2.081748 -3.70584,0.06742 0.03267,-1.705457 0.20301,-2.466268 0.580873,-3.64216 -0.465627,-1.405578 -1.231522,-4.660997 -1.644745,-5.677814 -1.841618,3.131974 -2.720727,6.040029 -2.638805,9.07777 0.048,1.780007 2.136725,4.462215 4.410316,4.399355 1.723822,-0.04768 -0.17021,0.820697 -1.207884,1.198304 -1.486768,0.541028 -4.353301,0.09099 -4.54002,2.111368 0.819651,1.146813 3.835895,2.503701 5.224975,2.132657 1.743577,-0.465727 2.903129,-2.066365 3.872412,-3.564586 0.752727,-1.163493 0.19036,-3.116273 1.923542,-3.579381 -0.04942,2.201288 -1.147635,4.208346 -2.70066,5.830416 -0.614313,0.641624 -2.672589,0.654021 -2.160867,2.328435 0.43708,1.430184 2.825824,1.886721 4.10737,0.860242 1.111549,-0.890324 1.74565,-2.053602 2.109496,-3.361412 0.402509,-1.446779 0.616935,-2.933489 0.861369,-4.411213 0.852513,1.530797 -0.370767,2.889112 -0.396892,4.472533 -0.02369,1.435454 0.03728,3.307662 -1.390011,4.059408 -1.173151,0.617885 -1.957917,3.816689 0.017,3.472873 1.71104,-0.297832 3.844798,-1.901248 4.074219,-3.731747 0.136217,-1.086855 -0.688008,-4.058423 0.147808,-4.115363 2.074674,-0.141316 0.830022,3.404826 2.117182,4.483611 1.909955,1.600771 5.178254,1.461371 7.417323,1.041859 3.551512,-0.665386 3.625252,-3.49481 -0.373185,-3.382463 -1.596333,0.04484 -3.319909,0.493614 -4.555262,-0.544276 -0.598015,-0.502432 -1.036425,-1.798595 -0.676954,-1.93412 2.108321,0.805685 6.260637,1.0681 8.166025,-0.234404 1.476295,-1.009186 -2.759279,-2.627508 -3.773279,-2.648642 -1.702942,-0.03545 -3.555212,0.284428 -4.998782,-0.905635 -0.872171,-0.719007 -3.397923,-1.181754 -1.937407,-1.838043 2.03162,-0.912922 4.171309,1.98042 6.476868,1.399517 1.376568,-0.346829 2.737775,-0.717248 4.093951,-1.119701 2.402483,-0.712945 0.349982,-3.490737 -1.388837,-2.978614 -1.638136,0.482474 -3.106889,1.643802 -4.872591,0.962826 -0.707663,-0.272926 -2.015901,-0.275368 -0.698458,-0.453268 1.843687,-0.248973 2.983329,-1.858461 4.049646,-3.29908 0.966913,-1.306314 2.04032,-2.507248 3.196436,-3.645637 1.653088,-1.627739 -1.070232,-3.1868 -2.214776,-1.480642 -1.165118,1.736823 -3.258219,2.678711 -4.242026,4.536834 -0.403313,0.761739 -2.64933,2.045758 -1.353157,0.650405 1.142624,-1.230056 2.50214,-2.246486 3.45459,-3.623485 0.881689,-1.274695 1.275809,-5.123115 -0.751834,-4.60954 -1.356691,0.343635 -0.219972,2.980305 -1.649354,3.876979 -0.983222,0.616793 -2.691446,2.96855 -2.902767,2.413281 -0.570313,-1.498568 0.06493,-3.239126 0.982074,-4.669538 1.079112,-1.683024 2.651543,-3.501937 2.052046,-5.684506 -0.336003,-1.223279 -2.288467,-5.237343 -3.541073,-3.375043 -0.857477,1.274844 0.660855,3.385687 0.05861,4.842352 -0.613026,1.482748 -1.555167,2.89504 -1.996488,4.532037 -0.402226,1.491987 0.13545,2.789003 -0.739546,4.089643 -0.266092,0.39553 -0.460773,1.039232 -0.595044,0.915116 -0.345612,-0.319468 -0.290976,-2.48802 -0.02368,-3.048468 0.748605,-1.569619 1.769922,-3.090765 1.742526,-4.920935 -0.03158,-2.110169 -0.223729,-4.229789 -0.67665,-6.281927 -0.486326,-2.203497 -2.253965,-0.144611 -2.26043,1.149778 -0.01041,2.083945 0.921271,4.382961 -0.319465,6.318098 -1.009799,1.574951 -1.712068,3.466613 -1.224719,5.417914 0.200808,0.804016 0.692854,3.290271 -0.371003,1.5187 -0.752508,-1.253097 -1.682939,-2.968359 -0.521358,-4.248764 1.16116,-1.279936 -0.256986,-3.060783 0.485096,-4.265528 0.973074,-1.579747 -0.34311,-3.450644 0.784556,-4.435205 1.361991,-1.189147 0.877532,-2.982965 -0.580623,-3.081783 z m -0.249807,1.189476 c 2.016117,0.52339 -1.013373,1.591788 -0.297749,3.051354 0.800446,1.632558 -1.187623,2.879347 -0.608667,4.392053 0.648021,1.693166 -0.786491,2.76357 -0.987727,4.22983 -0.266276,1.940163 1.198924,3.555588 2.05521,5.15302 0.511386,0.888063 2.274076,1.297399 0.395877,1.565789 -0.96968,0.546801 -0.988622,0.109612 -1.716706,-0.378685 -1.378553,-0.924541 0.497808,-0.89682 -0.374159,-2.224415 -1.13527,-1.728491 -2.458849,-4.020656 -1.42147,-6.119318 0.764572,-1.546755 1.46218,-3.132564 1.364964,-4.903816 -0.08225,-1.498583 0.02359,-3.189212 0.956964,-4.43059 0.147507,-0.196182 0.398261,-0.39628 0.633463,-0.335222 z m 3.414745,1.056528 c 0.589533,2.241327 0.987588,4.675755 0.437881,6.966295 -0.462163,1.92576 -2.394532,3.642969 -1.682236,5.733025 0.216464,0.635158 0.292335,2.346368 0.896211,2.245245 1.278572,-0.730179 2.408724,-1.974243 2.313511,-3.568201 -0.128303,-2.147892 0.706525,-4.231268 2.06035,-5.942828 1.020922,-1.290688 0.430841,-3.064495 0.283111,-4.618859 -0.12952,-1.362764 1.163845,1.276392 1.338228,1.77312 0.617791,1.759796 -0.664626,3.297215 -1.529083,4.668826 -0.895789,1.421324 -1.676071,3.013982 -1.410049,4.707773 0.2508,1.59686 -0.428376,3.134948 -1.880956,3.822916 -1.06654,0.275146 -3.143258,0.703483 -3.016216,-0.4934 1.421472,0.04102 0.408344,-1.916401 0.247991,-2.72892 -0.385307,-1.952368 0.435767,-3.664932 1.405669,-5.208501 1.089006,-1.73312 0.611274,-3.815261 0.36552,-5.708663 -0.07185,-0.553582 0.029,-2.184168 0.170068,-1.647828 z m 8.543631,8.087625 c 0.887311,1.275668 -0.414095,3.021437 -1.59737,3.952639 -1.9812,1.559146 -3.141188,4.219199 -5.637135,5.086036 -0.55321,0.313534 -2.288749,-0.21429 -1.144988,-0.342229 1.879378,0.122917 2.760778,-1.713382 3.951545,-2.805322 1.268315,-1.163053 2.650609,-2.205021 3.732803,-3.541337 0.53519,-0.660865 0.227558,-3.022027 0.695145,-2.349787 z m 4.086526,1.778973 c 0.918403,0.33961 -1.182919,2.120191 -1.91085,2.937666 -1.375856,1.545099 -2.163891,3.674479 -4.319457,4.27806 -1.144614,0.3205 -4.285491,1.121885 -4.022911,0.582229 0.783743,-1.61075 3.26943,-0.729357 4.501381,-2.078071 1.015418,-1.111652 1.811708,-2.435064 3.07356,-3.302084 1.007601,-0.692324 1.469463,-2.864798 2.678277,-2.4178 z m -22.757765,4.294482 c 0.05711,0.768536 -0.379487,1.328121 -0.470488,1.870304 -0.307138,1.829911 -0.479979,2.776845 0.892016,4.091282 1.282601,1.228795 3.469614,-0.958588 4.81827,-1.309947 1.081945,-0.28188 3.011116,-1.025185 3.550623,-0.973323 -0.54371,1.459904 -2.432152,1.566309 -3.372494,2.603354 -0.902314,0.995105 -1.98946,0.618519 -2.926962,1.071115 -1.951523,0.942132 -4.241811,-1.658673 -4.373416,-3.108096 -0.257251,-2.833221 0.01612,-3.90138 1.386224,-6.378576 0.0067,1.311645 0.22456,1.352265 0.496227,2.133887 z m 9.706264,4.059397 c 1.38048,0.633536 2.953954,0.205389 4.34793,0.642007 1.96496,0.61546 4.157962,1.749344 6.119521,0.640427 0.740462,-0.418594 3.735329,-0.606385 2.953104,0.04868 -1.383959,1.159022 -3.499074,1.387717 -5.336022,1.362833 -2.114473,-0.02861 -3.8442,-1.710943 -6.071499,-1.545999 -0.761307,0.05638 -3.428183,0.08111 -2.013034,-1.147969 z m -1.319871,1.534767 c 1.989638,-0.143843 0.706939,2.481436 2.100075,3.451608 0.5537,1.167445 1.766789,1.188189 2.621004,1.96332 1.229993,1.116108 0.631792,3.67348 2.680075,4.106038 1.447401,0.30567 3.802448,-0.293666 5.200409,0.336083 0.970695,0.437265 -2.038418,1.068425 -2.557372,1.146171 -1.540571,0.230817 -4.402159,-0.04573 -4.714639,-2.002929 -0.296293,-1.855848 -1.344525,-2.822951 -3.039999,-3.59783 -1.014447,-0.463635 -0.340568,0.728387 -0.436886,1.182977 -0.351196,1.657515 -0.09305,4.130693 -1.304314,5.534905 -0.503512,0.58372 -2.881286,0.923592 -1.199828,-0.176304 1.723961,-1.127699 1.666144,-3.524652 1.81603,-5.303987 0.1296,-1.538496 0.562011,-3.206148 -0.274676,-4.748902 0.186991,-1.235766 -1.233925,-2.34664 -1.420114,-0.429706 -0.41361,2.316237 -0.47047,4.275441 -1.583905,6.382208 -0.249281,0.471673 -1.096673,1.402001 -1.825865,1.58012 -0.997126,0.243576 -1.855047,0.08642 -1.116116,-0.798555 0.488116,-0.584593 1.06634,-0.209696 1.606972,-0.579215 0.727058,-0.496939 1.386124,-1.719668 1.666592,-2.544261 0.527616,-1.551226 0.926057,-3.246125 0.714818,-4.886143 0.371069,-0.177335 0.736954,-0.369034 1.067739,-0.615598 z m 2.088104,0.440923 c 1.401273,-0.23919 1.227755,0.754686 0.944217,1.773885 1.275735,0.821199 2.568037,1.683666 3.974502,2.255693 1.778072,0.72316 7.155596,-0.466125 5.700343,0.864951 -0.854501,0.781584 -1.933719,0.485833 -3.227091,0.320461 -2.041526,-0.261033 -4.296851,-0.481053 -6.321707,-2.080545 -0.819555,-0.647396 -1.18828,-2.157559 -1.070264,-3.134445 z m -5.776911,1.464542 c -0.348338,2.024451 -1.86179,3.575391 -3.071471,4.522373 -1.309066,1.024778 -3.012143,0.774875 -4.284105,-0.250115 0.0413,-1.181723 3.264523,-0.586032 4.727158,-1.392554 1.115473,-0.615087 0.813816,-2.7414 2.628418,-2.879704 z"
       id="path4209"
       inkscape:connector-curvature="0"
       sodipodi:nodetypes="sssssssccssscsscsssscssssssssscssssssssssssssssssssssssssssssssssssssssccssssssssscssssssccssssssccsssssssssscssscssscccssssscccssssssssssccsssssccccssssccccscc" />
    <path
       style="font-size:medium;font-style:normal;font-variant:normal;font-weight:normal;font-stretch:normal;text-indent:0;text-align:start;text-decoration:none;line-height:normal;letter-spacing:normal;word-spacing:normal;text-transform:none;direction:ltr;block-progression:tb;writing-mode:lr-tb;text-anchor:start;baseline-shift:baseline;color:#000000;fill:#000000;fill-opacity:1;fill-rule:evenodd;stroke:none;visibility:visible;display:inline;overflow:visible;enable-background:accumulate;font-family:sans-serif"
       d="m 54.548415,16.828129 c 0,0 -12.108421,1.944648 -18.896684,5.49753 -7.312054,3.827026 -12.112277,11.164615 -15.372508,18.514682 -0.91496,2.062749 -2.498198,7.849106 -1.469847,7.79317 0.69824,-0.03795 1.750671,-5.152968 3.058842,-7.582751 3.851699,-7.154104 8.422141,-14.697475 16.072303,-18.166981 6.219056,-2.820474 19.657892,-5.273539 19.657892,-5.273539 -0.75808,-0.322223 -2.291918,-0.604157 -3.049998,-0.782111 z m 0.956816,4.282598 c -6.34598,0.421087 -10.442961,2.171064 -14.485312,4.555797 -3.657659,2.157785 -5.330133,5.339069 -4.926955,5.422728 0.486983,0.101047 4.231528,-3.269411 6.02612,-4.187157 1.712882,-0.875955 8.428765,-3.540562 13.9283,-3.9176 7.655189,-0.52482 14.082351,1.710069 14.796199,2.042061 -0.297279,-0.323833 -1.767982,-1.684646 -3.419516,-2.68368 -0.456696,-0.314911 -8.483707,-1.460088 -11.918836,-1.232149 z m 7.540191,5.130021 c -7.752058,0.01508 -14.974575,4.263219 -20.736494,9.097467 -2.764076,2.31906 -6.56003,6.417973 -8.659771,10.43951 -2.324785,4.452557 -2.765943,8.74898 -1.705329,9.089385 0.452656,0.145279 0.922688,-4.640878 2.175376,-7.065002 1.674499,-3.240381 5.421313,-7.494149 8.98623,-10.792547 2.832332,-2.620582 6.646733,-4.735302 10.167305,-6.438197 3.055869,-1.478118 7.499552,-2.770833 9.772683,-2.792457 3.932845,-0.03737 6.018033,-1.549898 0,-1.538159 z m 11.039543,2.206333 c -5.804239,1.662516 -8.560648,2.9869 -13.541851,6.292341 -4.081477,2.708394 -11.441392,11.365224 -11.337731,12.950744 0.08265,1.264148 7.308508,-6.780689 9.229691,-8.262559 2.312912,-1.784029 5.010429,-4.401113 7.917726,-5.943236 4.631912,-2.456916 8.834198,-3.654536 8.834198,-3.654536 z m 7.059622,13.641612 c -1.391776,5.356742 -6.283343,8.205204 -10.552253,11.094347 -5.792482,3.920283 -13.472466,5.37974 -19.104251,8.394643 -3.023164,1.618412 5.286622,-0.261133 7.368048,-0.885811 4.117446,-1.235727 8.923768,-3.223001 13.207731,-5.700855 4.297419,-2.48563 8.069191,-5.466628 10.092626,-9.770042 -0.180531,-0.935679 -0.383392,-1.928045 -1.011901,-3.132282 z m 2.423694,17.820801 c -3.764376,7.391897 -8.821262,10.055573 -14.871996,12.180313 -8.294895,2.912792 -16.892242,5.038468 -25.645209,4.04156 -2.55946,-0.291505 -1.958405,1.276339 0.641031,1.593231 3.77416,0.460089 7.583707,0.329611 11.357692,-0.01598 5.436532,-0.497817 10.799267,-2.143401 15.876113,-4.132962 5.953641,-2.333168 9.462813,-3.960269 12.121081,-10.013047 0.195315,-1.116748 0.511942,-2.288414 0.521288,-3.653119 z m -10.539595,20.41482 c -3.2439,0.793546 -7.879614,1.686666 -12.826099,1.698419 -3.333116,0.008 -7.449742,-0.56469 -10.684158,-0.359113 -4.182718,0.265853 8.600206,2.201894 10.286793,2.291178 3.655329,0.193488 6.280682,0.06856 10.019581,-1.252981 1.018039,-0.692656 2.054185,-1.421529 3.203883,-2.377503 z m -34.593795,2.763838 c -1.637003,1.336887 4.800492,4.350212 5.80165,4.633129 0.850964,0.214276 3.081407,0.630375 4.380634,0.723556 -0.551298,-0.697817 -3.610936,-1.670262 -5.327732,-2.516414 -1.918912,-0.945758 -3.932557,-2.063365 -4.854552,-2.840271 z"
       id="path4360"
       inkscape:connector-curvature="0"
       sodipodi:nodetypes="csssssccsssssccsssssssssscsssscccsssscccssssscccssscccccsc" />
  </g>
</svg>
